<svg width="48" height="48" viewBox="0 0 48 48" fill="none" xmlns="http://www.w3.org/2000/svg">
<rect width="48" height="48" fill="#323238"/>
<g clip-path="url(#clip0_61385_216)">
<path d="M22.724 35.9999C21.617 35.9999 20.324 35.9939 19.048 35.9209C17.1811 35.9629 15.3729 35.2669 14.016 33.9839C12.7328 32.6275 12.0367 30.8196 12.079 28.9529C12 27.5099 12 26.0509 12 24.6399C12 24.4265 12 24.2132 12 23.9999C12 23.7865 12 23.5732 12 23.3599C12 21.9489 12 20.4899 12.079 19.0479C12.037 17.1809 12.733 15.3728 14.016 14.0159C15.3729 12.7329 17.1811 12.0369 19.048 12.0789C20.328 12.0059 21.617 11.9999 22.724 11.9999H25.277C26.384 11.9999 27.677 12.0059 28.954 12.0789C30.8207 12.0366 32.6286 12.7327 33.985 14.0159C35.268 15.3728 36.042 17.1809 36 19.0479C36.078 20.4899 36 21.9489 36 23.3609C36 23.5742 36 23.7875 36 24.0009C36 24.2142 36 24.4272 36 24.6399C36 26.0509 36 27.5099 35.921 28.9539C35.9633 30.8206 35.2672 32.6285 33.984 33.9849C32.6276 35.2681 30.8197 35.9642 28.953 35.9219C27.672 35.9949 26.383 36.0009 25.276 36.0009L22.724 35.9999Z" fill="white"/>
<path d="M17.6391 19.6337C17.8756 19.7917 18.1536 19.876 18.438 19.876L18.439 19.877C18.8203 19.8765 19.1858 19.7246 19.4552 19.4548C19.7247 19.185 19.876 18.8193 19.876 18.438C19.876 18.1536 19.7917 17.8756 19.6337 17.6391C19.4756 17.4026 19.2511 17.2183 18.9883 17.1095C18.7255 17.0006 18.4364 16.9721 18.1575 17.0276C17.8785 17.0831 17.6223 17.2201 17.4212 17.4212C17.2201 17.6223 17.0831 17.8785 17.0276 18.1575C16.9721 18.4364 17.0006 18.7255 17.1095 18.9883C17.2183 19.2511 17.4026 19.4756 17.6391 19.6337Z" fill="#323238"/>
<path fill-rule="evenodd" clip-rule="evenodd" d="M25.0301 31.312C24.7845 31.312 24.5282 31.312 24.2561 31.312H22C21.9225 30.7168 21.9586 28.4081 21.9834 26.8241C21.9925 26.2475 22 25.7669 22 25.5V22L24.9999 22C24.9999 22.5858 25 22.6569 25 22.7157C25 22.7574 25 22.7929 25 23C25 23.1348 25.109 23.0516 25.3367 22.8777C25.954 22.4066 27.4434 21.2695 30 22C31.2707 22.4236 31.4649 22.8471 31.7986 23.5747C31.8588 23.7059 31.9236 23.8471 32 24C31.9988 25.0781 32.0142 29.8213 32.0181 31.0307C32.0187 31.2064 32.019 31.3076 32.019 31.312C32.019 31.3351 30.7037 31.3274 29.3867 31.3197C29.2401 31.3189 29.0936 31.318 28.9489 31.3172C29 29.5461 29 26.4124 29 26C29 24.2754 28.2748 24.2222 28.2748 24.2222C27.2748 23.7222 26.4996 23.9444 25.9998 24.2222C25.5 24.5 25.0301 25.5006 25.0301 25.8579C24.9846 26.6628 25.0002 27.3885 25.0154 28.0923C25.0228 28.4359 25.0301 28.7744 25.0301 29.1143L25.0301 31.312Z" fill="#323238"/>
<rect width="3" height="9" transform="translate(17 22)" fill="#202024"/>
</g>
<defs>
<clipPath id="clip0_61385_216">
<rect width="24" height="24" fill="white" transform="translate(12 11.9999)"/>
</clipPath>
</defs>
</svg>
